<svg width="60" height="69" viewBox="0 0 60 69" fill="none" xmlns="http://www.w3.org/2000/svg">
<path d="M34 4C34 1.79086 32.2091 -9.65645e-08 30 0C27.7909 9.65645e-08 26 1.79086 26 4L34 4ZM27.1716 67.8284C28.7337 69.3905 31.2663 69.3905 32.8284 67.8284L58.2843 42.3726C59.8464 40.8105 59.8464 38.2778 58.2843 36.7157C56.7222 35.1536 54.1895 35.1536 52.6274 36.7157L30 59.3431L7.37258 36.7157C5.81049 35.1536 3.27783 35.1536 1.71573 36.7157C0.153633 38.2778 0.153633 40.8105 1.71573 42.3726L27.1716 67.8284ZM26 4L26 65L34 65L34 4L26 4Z" fill="#FF1744"/>
</svg>
