<?xml version="1.0" encoding="UTF-8"?><svg id="Layer_1" xmlns="http://www.w3.org/2000/svg" width="15.17mm" height="15.17mm" xmlns:xlink="http://www.w3.org/1999/xlink" viewBox="0 0 43 43"><defs><style>.cls-1{stroke-width:0px;}.cls-1,.cls-2{fill:none;}.cls-3{clip-path:url(#clippath);}.cls-4{fill:#eeedff;}.cls-4,.cls-2{stroke:#eeedff;stroke-miterlimit:10;}</style><clipPath id="clippath"><rect class="cls-1" x="4.59" y="4.59" width="33.83" height="33.83"/></clipPath></defs><g class="cls-3"><path class="cls-4" d="M21.5,7.4c3.83,0,4.31.01,5.81.08,1.5.07,2.52.31,3.42.66.93.36,1.71.84,2.5,1.63.72.7,1.27,1.56,1.63,2.5.35.9.58,1.92.66,3.42.07,1.5.08,1.98.08,5.81s-.01,4.31-.08,5.81c-.07,1.5-.31,2.52-.66,3.42-.35.94-.91,1.79-1.63,2.5-.7.72-1.56,1.27-2.5,1.63-.9.35-1.92.58-3.42.66-1.5.07-1.98.08-5.81.08s-4.31-.01-5.81-.08c-1.5-.07-2.52-.31-3.42-.66-.94-.35-1.79-.91-2.5-1.63-.72-.7-1.27-1.56-1.63-2.5-.35-.9-.58-1.92-.66-3.42-.07-1.5-.08-1.98-.08-5.81s.01-4.31.08-5.81c.07-1.5.31-2.52.66-3.42.35-.94.91-1.79,1.63-2.5.7-.72,1.56-1.27,2.5-1.63.9-.35,1.92-.58,3.42-.66,1.5-.07,1.98-.08,5.81-.08ZM21.5,14.45c-1.87,0-3.66.74-4.98,2.06-1.32,1.32-2.06,3.11-2.06,4.98s.74,3.66,2.06,4.98c1.32,1.32,3.11,2.06,4.98,2.06s3.66-.74,4.98-2.06,2.06-3.11,2.06-4.98-.74-3.66-2.06-4.98c-1.32-1.32-3.11-2.06-4.98-2.06ZM30.66,14.1c0-.47-.19-.92-.52-1.25-.33-.33-.78-.52-1.25-.52s-.92.19-1.25.52-.52.78-.52,1.25.19.92.52,1.25c.33.33.78.52,1.25.52s.92-.19,1.25-.52c.33-.33.52-.78.52-1.25ZM21.5,17.27c1.12,0,2.2.45,2.99,1.24s1.24,1.87,1.24,2.99-.45,2.2-1.24,2.99c-.79.79-1.87,1.24-2.99,1.24s-2.2-.45-2.99-1.24c-.79-.79-1.24-1.87-1.24-2.99s.45-2.2,1.24-2.99,1.87-1.24,2.99-1.24Z"/></g><circle class="cls-2" cx="21.5" cy="21.5" r="20.36"/></svg>