<?xml version="1.0" encoding="UTF-8"?><svg id="Layer_1" xmlns="http://www.w3.org/2000/svg" width="43" height="43" viewBox="0 0 43 43"><defs><style>.cls-1{fill:#4d11c1;stroke-width:0px;}</style></defs><path class="cls-1" d="M24.53,18.46c.81.81,1.25,1.88,1.25,3.03s-.45,2.24-1.24,3.03c-.82.8-1.89,1.25-3.04,1.25s-2.24-.45-3.03-1.24c-.8-.82-1.25-1.89-1.25-3.04s.44-2.23,1.25-3.03c.81-.8,1.88-1.25,3.03-1.25s2.25.45,3.03,1.25Z"/><path class="cls-1" d="M27.66,9.91h-12.32c-2.99,0-5.42,2.44-5.42,5.42v12.32c0,3,2.44,5.42,5.42,5.42h12.32c3,0,5.42-2.42,5.42-5.42v-12.32c0-2.99-2.43-5.42-5.42-5.42ZM26,26c-1.2,1.2-2.8,1.85-4.5,1.85s-3.33-.68-4.51-1.86c-1.2-1.21-1.85-2.8-1.85-4.5s.66-3.3,1.85-4.51c1.22-1.2,2.81-1.85,4.51-1.85s3.33.68,4.51,1.86c1.2,1.21,1.85,2.8,1.85,4.5s-.68,3.33-1.86,4.51ZM29.77,16.53c-.43.44-1.02.69-1.65.69s-1.21-.25-1.65-.69c-.44-.43-.69-1.02-.69-1.65s.25-1.21.69-1.65c.9-.9,2.46-.88,3.32.02.44.43.68,1.01.68,1.63s-.24,1.21-.69,1.65Z"/><path class="cls-1" d="M21.5.9C10.13.9.9,10.13.9,21.5s9.22,20.6,20.6,20.6,20.6-9.22,20.6-20.6S32.88.9,21.5.9ZM35.17,27.65c0,4.14-3.36,7.5-7.5,7.5h-12.32c-4.14,0-7.5-3.36-7.5-7.5v-12.32c0-4.14,3.36-7.5,7.5-7.5h12.32c4.14,0,7.5,3.36,7.5,7.5v12.32Z"/></svg>