<?xml version="1.0" encoding="UTF-8"?><svg id="Layer_1" xmlns="http://www.w3.org/2000/svg" width="43" height="43" viewBox="0 0 43 43"><defs><style>.cls-1{fill:#eeedff;stroke-width:0px;}</style></defs><path class="cls-1" d="M.9,22.55v-2.13c.1-.02.08-.09.08-.16-.02-.28.03-.55.05-.82.04-.38.08-.75.15-1.13.08-.47.16-.95.27-1.41.19-.79.4-1.56.68-2.33.26-.73.56-1.44.9-2.15.18-.39.4-.76.61-1.13.24-.44.51-.87.79-1.28.41-.6.84-1.19,1.31-1.74.3-.34.59-.69.91-1.02.36-.35.7-.71,1.08-1.05.38-.34.77-.67,1.17-.98.53-.41,1.08-.81,1.66-1.16.49-.3.99-.59,1.49-.86.29-.15.59-.29.89-.43.6-.28,1.21-.53,1.84-.74.84-.29,1.69-.53,2.57-.71.64-.13,1.28-.25,1.93-.3.15-.01.31-.02.46-.04.28-.05.57-.06.86-.06.78,0,1.55-.04,2.33.03.24.02.49.03.74.06.36.04.71.09,1.07.14.48.07.96.17,1.43.28.76.17,1.5.39,2.23.65.59.21,1.18.43,1.75.7,1.08.51,2.12,1.09,3.1,1.77.73.5,1.42,1.04,2.08,1.63.35.32.72.63,1.03.98.13.15.26.29.39.43.22.24.45.48.65.74.34.42.67.85.98,1.29.43.61.83,1.25,1.2,1.9.24.44.47.88.68,1.34.27.59.52,1.19.73,1.8.3.84.53,1.69.72,2.56.08.38.16.77.21,1.16.05.38.11.75.14,1.13.03.38.08.76.07,1.14,0,.25,0,.5,0,.74,0,.71.02,1.42-.07,2.12-.04.34-.08.67-.12,1.01-.08.61-.21,1.22-.35,1.82-.19.81-.45,1.6-.73,2.37-.22.59-.47,1.17-.74,1.73-.2.42-.43.83-.66,1.24-.23.41-.47.81-.73,1.2-.34.5-.69.99-1.07,1.45-.46.57-.95,1.12-1.46,1.65-.27.27-.56.52-.83.79-.14.14-.28.27-.43.39-.35.28-.71.57-1.07.84-.89.67-1.84,1.26-2.83,1.78-.77.4-1.57.75-2.39,1.04-.57.21-1.15.39-1.74.55-.79.21-1.58.37-2.39.49-.49.07-.99.14-1.49.15-.17,0-.34.05-.52.05-.02,0-.03.02-.05.03h-1.77c-.12-.06-.24-.06-.36,0h-.08c-.01-.08-.08-.08-.14-.08-.12,0-.24.01-.36,0-.39-.06-.78-.09-1.17-.15-.37-.06-.74-.12-1.1-.19-.37-.07-.74-.16-1.11-.26-.46-.12-.91-.25-1.36-.4-.72-.24-1.42-.51-2.1-.84-.83-.39-1.64-.82-2.41-1.32-.6-.39-1.19-.8-1.74-1.24-.37-.3-.74-.59-1.08-.92-.68-.66-1.36-1.32-1.96-2.06-.39-.48-.77-.97-1.12-1.48-.41-.59-.77-1.2-1.12-1.83-.34-.62-.64-1.25-.91-1.9-.27-.64-.5-1.29-.7-1.96-.2-.68-.38-1.36-.51-2.06-.08-.39-.14-.79-.2-1.18-.04-.24-.07-.49-.08-.73-.01-.27-.07-.54-.04-.82,0-.06,0-.11-.08-.12ZM18.09,16.4c-.07.04-.09.1-.13.15-.26.38-.57.71-.95.96-.77.5-1.62.68-2.53.52-.65-.12-1.23-.41-1.72-.86-.21-.19-.38-.42-.53-.65-.07-.11-.11-.11-.19,0-.02.03-.04.05-.06.08-.22.33-.51.59-.83.83-.43.32-.91.51-1.43.6-.25.04-.51.1-.77.02-.07-.02-.11.01-.13.08-.05.12-.02.24-.03.36-.05.35-.08.7-.08,1.06,0,.03,0,.07,0,.1-.05.43-.06.86-.08,1.3,0,.29,0,.58,0,.86,0,.24.02.49,0,.72-.04.3-.05.6,0,.9,0,.04,0,.08,0,.12-.04.11-.03.22-.03.34.01,1.33-.03,2.67.04,4,.02.31,0,.61.03.92.03.4.06.81.08,1.22.03.47.1.93.17,1.39.08.54.21,1.07.39,1.59.11.32.26.62.47.88.06.07.12.12.21.14.42.09.85.17,1.28.23.35.05.7.08,1.05.14.45.06.9.09,1.35.14.32.03.65.06.98.08.45.03.89.04,1.34.08.27.02.55,0,.82.04.37.04.75,0,1.12.04.51.04,1.02-.03,1.52.05,1.27-.02,2.53.04,3.8-.03.57-.03,1.14,0,1.7-.04.22-.02.44.02.66,0,.41-.05.83-.05,1.24-.07.29-.01.58-.07.88-.05.02,0,.04,0,.06,0,.24-.05.48-.05.72-.06.22-.02.44-.04.66-.06.14-.01.29-.02.44-.04.26-.04.53-.09.79-.11.27-.02.53-.07.79-.11.28-.04.55-.08.83-.14.21-.04.43-.06.56-.26.1-.15.21-.3.28-.46.34-.75.49-1.55.6-2.36.04-.26.06-.53.09-.79.03-.33.07-.65.07-.98,0-.05,0-.1,0-.14.08-.41.06-.83.07-1.24.02-1.78.02-3.55,0-5.33,0-.57.02-1.15-.03-1.73-.04-.52-.05-1.04-.08-1.56-.02-.36-.05-.72-.09-1.08-.01-.12-.04-.15-.15-.12-.3.08-.6,0-.89-.05-.42-.08-.82-.25-1.18-.49-.39-.26-.73-.59-1-.98-.09-.14-.13-.14-.21,0-.14.23-.32.41-.5.6-.34.35-.76.59-1.22.76-.25.09-.5.12-.76.17-.34.06-.68.02-1.01-.04-.44-.08-.85-.24-1.22-.49-.28-.19-.55-.4-.76-.67-.1-.13-.2-.27-.3-.4-.04-.05-.07-.06-.11,0-.02.02-.03.05-.04.07-.34.47-.73.87-1.24,1.14-.5.26-1.03.4-1.59.43-.2,0-.4-.01-.6-.03-.28-.02-.56-.09-.82-.18-.58-.21-1.07-.54-1.46-1.02-.11-.14-.21-.29-.34-.44ZM24.2,14.52c.11.68.39,1.26.86,1.75.48.5,1.07.78,1.75.84.66.06,1.29-.06,1.86-.43.78-.51,1.25-1.23,1.4-2.16.05.15.07.3.11.44.17.58.49,1.07.95,1.46.21.18.44.33.69.44.42.18.86.27,1.33.26.39,0,.74-.12,1.07-.3.45-.23.81-.57,1.11-.97.4-.53.61-1.12.61-1.79,0-.36,0-.72,0-1.09,0-.08,0-.16-.03-.24-.07-.29-.23-.53-.38-.77-.23-.35-.47-.68-.74-.99-.24-.28-.47-.57-.72-.83-.32-.33-.64-.65-.97-.97-.29-.27-.59-.52-.92-.74-.06-.04-.11-.07-.18-.07-.26,0-.52-.01-.78-.03-.45-.04-.89,0-1.34-.04-.53-.05-1.07,0-1.6-.04-.83-.05-1.66-.01-2.49-.04-1.43-.04-2.87-.02-4.3,0-1.44.01-2.88-.03-4.32.03-1.26.05-2.53-.03-3.8.05-.57.03-1.15-.02-1.73.04-.42.04-.84,0-1.26.04-.1.01-.19.03-.28.09-.39.25-.73.56-1.07.88-.29.27-.56.55-.83.85-.32.37-.65.73-.95,1.11-.31.4-.6.8-.82,1.26-.04.09-.06.17-.06.27,0,.44,0,.89,0,1.33-.01.54.17,1.02.44,1.48.22.36.5.67.83.91.3.22.62.39.98.49.26.07.52.06.78.07.29,0,.57-.07.84-.17.46-.16.83-.44,1.17-.78.39-.4.62-.87.75-1.4.02-.1.04-.2.06-.34.2,1.54,1.31,2.52,2.57,2.68.7.09,1.38-.03,1.97-.45.75-.54,1.22-1.26,1.32-2.2.23,1.52,1.4,2.49,2.66,2.65.73.09,1.44-.05,2.07-.47.76-.51,1.21-1.21,1.38-2.12Z"/><path class="cls-1" d="M15.79,19.57c.48-.03.95.03,1.4.19.32.11.59.3.86.51.15.12.3.25.43.39.08.09.18.08.28.06.28-.04.57-.06.86-.08.84-.06,1.69-.03,2.53-.03.34,0,.69.02,1.04.07.14.02.29.01.44.04.11.02.19-.02.27-.1.19-.21.4-.4.63-.55.37-.24.76-.4,1.2-.47.41-.06.83-.04,1.24-.04.27,0,.53.09.77.2.48.21.87.53,1.21.93.37.43.66.91.91,1.41.24.49.44,1,.57,1.54.15.58.32,1.15.48,1.72.16.57.31,1.13.47,1.7.17.59.34,1.18.47,1.78.08.37.14.74.17,1.13.02.29,0,.57-.05.85-.08.37-.26.68-.63.85-.26.12-.52.18-.81.21-.24.02-.48.03-.72.03-.63,0-1.23-.12-1.81-.37-1.11-.49-1.81-1.34-2.12-2.51-.06-.22-.09-.44-.11-.67,0-.13-.02-.15-.16-.14-.11,0-.21.03-.32.05-.4.06-.81.11-1.21.14-.24.02-.48.04-.72.06-.39.03-.79,0-1.18.04-.59.06-1.18.04-1.77.02-.36-.01-.72,0-1.08-.04-.43-.04-.86-.05-1.29-.11-.43-.06-.86-.08-1.29-.17-.03,0-.05,0-.08,0-.15,0-.16,0-.16.16,0,.35-.07.69-.19,1.02-.15.42-.37.81-.67,1.15-.64.76-1.47,1.16-2.43,1.32-.48.08-.97.07-1.46.02-.28-.03-.55-.09-.81-.21-.33-.15-.51-.42-.6-.76-.11-.41-.09-.82-.05-1.23.08-.8.33-1.55.54-2.32.16-.57.32-1.15.48-1.72.18-.63.35-1.26.53-1.89.09-.33.18-.66.31-.97.29-.71.62-1.41,1.12-2,.5-.6,1.09-1.07,1.89-1.2.21-.04.41,0,.62-.01ZM24.22,25.67c-.02-.09-.06-.14-.1-.19-.31-.45-.71-.83-1.08-1.24-.53-.59-1.14-1.09-1.69-1.66-.04-.04-.09-.06-.13-.1-.06-.06-.12-.06-.17,0-.18.21-.42.37-.62.57-.28.29-.57.57-.85.85-.34.34-.68.66-.99,1.03-.16.19-.33.37-.46.58-.07.12-.06.14.08.15.15.02.29-.04.44-.04.32,0,.64.03.96-.03.11-.02.14.01.15.13,0,.05,0,.09,0,.14,0,.37,0,.74,0,1.11,0,.09.02.14.13.16.14.03.28.05.42.02.13-.03.27-.03.4-.03.3,0,.6,0,.9,0,.06,0,.12,0,.18.01.2.04.4.04.6,0,.15-.04.15-.03.15-.19,0-.39,0-.78,0-1.17,0-.16.04-.2.18-.17.14.04.28.03.42.03.26,0,.52-.02.78.04.09.02.19.02.29-.01Z"/></svg>